<svg width="359" height="359" viewBox="0 0 359 359" filter="gray" xmlns="http://www.w3.org/2000/svg">
<circle cx="179.5" cy="179.5" r="178.847" fill="#C3ACDE"/>
<circle cx="180.5" cy="181.5" r="135.5" fill="#844BBC"/>
<path fill-rule="evenodd" clip-rule="evenodd" d="M214.173 185.402C205.81 188.784 196.782 190.87 187.34 191.41C185.712 191.503 184.071 191.551 182.419 191.551C180.768 191.551 179.127 191.503 177.498 191.41C168.054 190.87 159.025 188.783 150.66 185.4C133.105 178.299 118.477 165.489 109.086 149.275C123.724 124.003 151.083 107 182.419 107C213.755 107 241.115 124.003 255.753 149.275C246.36 165.491 231.73 178.302 214.173 185.402Z" fill="white"/>
<path d="M150.658 191.981C148.636 191.163 146.653 190.269 144.711 189.303C138.403 193.741 133.07 199.269 129.054 205.576C135.88 216.295 146.511 224.764 159.27 229.458C165.35 231.695 171.912 233.075 178.777 233.432H185.929C192.792 233.075 204.854 239.865 187.339 257C200.1 252.306 228.825 216.296 235.652 205.576C231.648 199.287 226.333 193.773 220.049 189.341C218.13 190.293 216.17 191.175 214.172 191.983C205.809 195.365 196.781 197.451 187.339 197.991C185.711 198.085 184.07 198.132 182.418 198.132C180.766 198.132 179.126 198.085 177.497 197.991C168.053 197.451 159.023 195.364 150.658 191.981Z" fill="white"/>
<rect x="147.058" y="138.461" width="70.8775" height="25.2809" rx="12.6404" fill="#162550"/>
<ellipse cx="202.042" cy="150.961" rx="4.64079" ry="4.63483" fill="#04FED1"/>
<ellipse cx="182.353" cy="213.32" rx="4.64079" ry="4.63483" fill="#162550"/>
<ellipse cx="163.793" cy="150.961" rx="4.64079" ry="4.63483" fill="#04FED1"/>
<ellipse cx="163.793" cy="213.32" rx="4.64079" ry="4.63483" fill="#162550"/>
<ellipse cx="200.919" cy="213.32" rx="4.64079" ry="4.63483" fill="#162550"/>
</svg>
